# xmcd CD database file
#
# Track frame offsets:
#	150
#	26664
#	55130
#	77830
#	101439
#	128725
#	147471
#	162405
#	186909
#	206482
#	243556
#
# Disc length: 3700 seconds
#
# Revision: 0
# Processed by: cddbd v1.5.2PL0 Copyright (c) Steve Scherf et al.
# Submitted via: CDex 1.70beta2
#
DISCID=990e720b
DTITLE=Avishai Cohen - At home
DYEAR=2005
DGENRE=Jazz
TTITLE0=Feediop
TTITLE1=Madrid
TTITLE2=Leh-Lah
TTITLE3=Remembering
TTITLE4=Renouf's Last Tooth
TTITLE5=Gershon Beat
TTITLE6=No Words
TTITLE7=Punk (DJN)
TTITLE8=Meditterranean Sun
TTITLE9=Saba
TTITLE10=Toledo
EXTD=YEAR: 2005
EXTT0=
EXTT1=
EXTT2=
EXTT3=
EXTT4=
EXTT5=
EXTT6=
EXTT7=
EXTT8=
EXTT9=
EXTT10=
PLAYORDER=
